<?xml version="1.0" standalone="no"?><!DOCTYPE svg PUBLIC "-//W3C//DTD SVG 1.1//EN" "http://www.w3.org/Graphics/SVG/1.1/DTD/svg11.dtd"><svg t="1570524103846" class="icon" viewBox="0 0 1253 1024" version="1.1" xmlns="http://www.w3.org/2000/svg" p-id="2438" xmlns:xlink="http://www.w3.org/1999/xlink" width="244.7265625" height="200"><defs><style type="text/css"></style></defs><path d="M672.40509 520.096466a325.952184 325.952184 0 0 1-385.981391 0A474.252097 474.252097 0 0 0 4.991397 1024h948.803271a474.252097 474.252097 0 0 0-281.432303-503.903534zM1010.064038 437.251888a241.484041 241.484041 0 0 0-274.895314-387.818584 326.593065 326.593065 0 0 1 9.784119 398.029958 579.271165 579.271165 0 0 1 295.104436 382.776985h209.354529a360.55977 360.55977 0 0 0-239.262319-393.07381z" p-id="2439"></path><path d="M479.371669 0a254.985271 254.985271 0 1 0 254.985272 254.985271A254.985271 254.985271 0 0 0 479.371669 0z m5.853382 412.556599A108.35165 108.35165 0 0 1 376.873401 304.204948a107.155339 107.155339 0 0 1 1.452664-14.52664h213.627071a107.155339 107.155339 0 0 1 1.452664 14.52664 108.35165 108.35165 0 0 1-108.138023 108.351651z" p-id="2440"></path></svg>