<?xml version="1.0" standalone="no"?><!DOCTYPE svg PUBLIC "-//W3C//DTD SVG 1.1//EN" "http://www.w3.org/Graphics/SVG/1.1/DTD/svg11.dtd"><svg t="1570524251003" class="icon" viewBox="0 0 1024 1024" version="1.1" xmlns="http://www.w3.org/2000/svg" p-id="3163" xmlns:xlink="http://www.w3.org/1999/xlink" width="200" height="200"><defs><style type="text/css"></style></defs><path d="M264.9 661c-80.2 0-107.9 31.4-107.9 78.5S184.8 818 264.9 818c80.2 0 107.9-31.4 107.9-78.5S345.1 661 264.9 661z m0 0" p-id="3164"></path><path d="M850.8 252.5h-61.7c-9.3 0-15.4 6.3-15.4 15.7v78.5h-30.8v-110c0-9.4-6.2-15.7-15.4-15.7h-61.7c-9.2 0-15.4 6.3-15.4 15.7v78.5h-30.8v-78.5c0-9.4-6.2-15.7-15.4-15.7h-61.7c-9.3 0-15.4 6.3-15.4 15.7v78.5h-30.8v-47.1c0-9.4-6.2-15.7-15.4-15.7h-61.7c-9.2 0-15.4 6.3-15.4 15.7v78.5H373V284c0-47.1-27.8-78.5-107.9-78.5-80.2 0-107.9 31.4-107.9 78.5v377c24.7-22 58.6-31.4 107.9-31.4S348.4 639 373 661v-31.4h30.8v78.5c0 9.4 6.2 15.7 15.4 15.7h61.7c9.3 0 15.4-6.3 15.4-15.7v-110H527v78.5c0 9.4 6.2 15.7 15.4 15.7h61.7c9.2 0 15.4-6.3 15.4-15.7v-78.5h30.8v78.5c0 9.4 6.2 15.7 15.4 15.7h61.7c9.3 0 15.4-6.3 15.4-15.7v-47.1h30.8V708c0 9.4 6.2 15.7 15.4 15.7h61.7c9.2 0 15.4-6.3 15.4-15.7V268.2c0.1-9.4-6.1-15.7-15.3-15.7zM403.6 598.1h-30.8V378.2h30.8v219.9zM527 566.7h-30.8V346.8H527v219.9z m123.3 0h-30.8V346.8h30.8v219.9z m123.4 31.4h-30.8V378.2h30.8v219.9z m0 0" p-id="3165"></path></svg>