<?xml version="1.0" standalone="no"?><!DOCTYPE svg PUBLIC "-//W3C//DTD SVG 1.1//EN" "http://www.w3.org/Graphics/SVG/1.1/DTD/svg11.dtd"><svg t="1570463171197" class="icon" viewBox="0 0 1024 1024" version="1.1" xmlns="http://www.w3.org/2000/svg" p-id="2635" xmlns:xlink="http://www.w3.org/1999/xlink" width="200" height="200"><defs><style type="text/css"></style></defs><path d="M989.6012000000001 423.8L902.0011999999999 218a35.699999999999996 35.699999999999996 0 0 0-32.7-21.599999999999998H145.40120000000002a35.699999999999996 35.699999999999996 0 0 0-33.300000000000004 22.8l-75 195L35.00119999999998 422a153 153 0 0 0 6.9 84.3 155.39999999999998 155.39999999999998 0 0 0 233.4 74.4 35.699999999999996 35.699999999999996 0 0 1 40.800000000000004 0 154.5 154.5 0 0 0 175.8 0 35.4 35.4 0 0 1 40.5 0 154.5 154.5 0 0 0 175.8 0 35.4 35.4 0 0 1 40.5 0 154.5 154.5 0 0 0 87.9 27.6A156.3 156.3 0 0 0 992.0011999999999 447.5z m-153 111.9a84 84 0 0 1-69.6-37.2 46.5 46.5 0 0 0-77.1 0 83.7 83.7 0 0 1-139.2 0 48 48 0 0 0-77.1 0 83.7 83.7 0 0 1-139.2 0 46.5 46.5 0 0 0-38.7-20.400000000000002 46.2 46.2 0 0 0-38.4 20.400000000000002 84 84 0 0 1-84.3 36 85.19999999999999 85.19999999999999 0 0 1-64.5-54 83.1 83.1 0 0 1-4.8-38.4 36.9 36.9 0 0 1 2.4-9.6l60-150a35.699999999999996 35.699999999999996 0 0 1 33-22.5h626.4a35.699999999999996 35.699999999999996 0 0 1 33 22.5l60 152.7 1.5 15.3a84.6 84.6 0 0 1-83.39999999999999 85.19999999999999zM779.9012 903.8H244.10119999999995a35.699999999999996 35.699999999999996 0 0 1-35.699999999999996-35.699999999999996v-140.39999999999998A35.699999999999996 35.699999999999996 0 0 0 173.00120000000004 692a35.699999999999996 35.699999999999996 0 0 0-35.699999999999996 35.699999999999996v211.79999999999998a35.699999999999996 35.699999999999996 0 0 0 35.699999999999996 35.4h678a35.699999999999996 35.699999999999996 0 0 0 35.699999999999996-35.699999999999996V731a35.699999999999996 35.699999999999996 0 0 0-35.699999999999996-35.699999999999996 35.699999999999996 35.699999999999996 0 0 0-35.699999999999996 35.699999999999996v137.4a35.699999999999996 35.699999999999996 0 0 1-35.4 35.4z" p-id="2636"></path><path d="M142.70119999999997 49.10000000000002l705.6 0 0 71.10000000000001-705.6 0 0-71.10000000000001Z" p-id="2637"></path></svg>