<?xml version="1.0" standalone="no"?><!DOCTYPE svg PUBLIC "-//W3C//DTD SVG 1.1//EN" "http://www.w3.org/Graphics/SVG/1.1/DTD/svg11.dtd"><svg t="1576324552720" class="icon" viewBox="0 0 1986 1024" version="1.1" xmlns="http://www.w3.org/2000/svg" p-id="1812" xmlns:xlink="http://www.w3.org/1999/xlink" width="387.890625" height="200"><defs><style type="text/css"></style></defs><path d="M1855.279857 394.562568c17.300297-4.187369 10.80285 15.423007 28.103147 11.241259 9.217832 12.028147-14.326985 27.282535-5.620629 56.200674l-10.302614-2.810315-6.559275 8.430944c-12.562107-2.428112-2.276355-27.704083-5.620629-39.344406l2.495559-15.304974-13.736818-7.171923c0-1.87167 0-3.74896 0-5.620629l8.430944 2.810315L1855.279857 394.562568z" p-id="1813"></path><path d="M1871.2031 470.435445l6.559275-8.430944c38.608104 23.207579 72.174503 51.456863 106.775098 78.677571 3.917579 28.266146-9.532588 39.175787-5.620629 67.436312-172.249811 15.630971-329.762331 34.791696-494.547946 56.200674-51.87841 6.739135-111.620081 9.414554-157.355143 22.476897-67.964652 19.424895-92.554905 68.346854-174.217031 78.683192-39.900849 5.041705-69.442877-10.08903-112.401348-5.620629-51.951478 5.401425-114.014469 41.244179-168.602022 61.815683-162.458674 61.242379-332.128616 127.948009-477.691678 202.320178-43.706015-44.830141-68.774022-103.998507-101.160089-157.360763C199.133281 712.055065 96.174591 552.687737 0.708199 394.568189c-5.030463-18.149013 18.328873-7.896984 22.482518-16.861888l8.430944 2.810315 8.430944-2.810315c117.285675 193.681271 238.106726 383.827166 359.675321 573.225517 3.344275-11.634703-6.947098-36.910674 5.620629-39.338786l6.559275 8.430944 10.302614-2.810315c7.458575 24.64646-10.62299 52.637195-5.620629 56.200674 206.198413-101.025194 363.075802-251.377032 674.385606-247.279593-4.766294-64.704686 29.485822-90.402204 50.574424-129.257616-8.891836-0.466512-21.42584 2.703523-22.471277-5.620629l2.810315-8.425324-2.810315-8.430944c4.783156 1.039816 5.294633-2.192045 5.620629-5.620629l7.615953-6.823444-1.995323-10.038444c21.718112 0.764406 22.156521 22.802894 39.333165 28.103147l6.829065 7.621574 10.032824-2.000944c-3.75458 24.342946-26.006653 30.188401-28.103147 56.195053 26.478785-1.624362 39.794057-16.406617 73.056942-11.235638 22.156521 5.946626 21.42584 34.780455 33.723777 50.574424 109.754032-135.642651 379.842139-110.951226 618.190553-118.016357-6.677308-32.661478-23.348095-55.329476-22.482518-95.533839L1871.2031 470.435445z" p-id="1814"></path><path d="M33.48771 369.275356l-10.302614 2.810315c0.466512-8.897456-2.703523-21.437081 5.620629-22.482518l6.559275 8.430944 10.302614-2.810315c-0.466512 8.897456 2.703523 21.42584-5.620629 22.482518L33.48771 369.275356z" p-id="1815"></path><path d="M1871.2031 479.327281c-3.726477 0-7.194406-2.360664-8.430944-6.087142l-3.743339-11.241259c-1.545673-4.659502 0.972369-9.689965 5.62625-11.235638 4.665122-1.545673 9.695586 0.97799 11.235638 5.631871l3.743339 11.241259c1.545673 4.659502-0.972369 9.689965-5.62625 11.235638C1873.07477 479.175524 1872.130504 479.327281 1871.2031 479.327281z" p-id="1816"></path><path d="M31.616041 380.516615c0.224825-3.74896 1.034196-7.492299 1.87167-11.241259" p-id="1817"></path><path d="M31.621661 389.178005c-0.17424 0-0.348479-0.005621-0.528339-0.016862-4.777535-0.286652-8.414082-4.389712-8.12743-9.161626 0.252928-4.254817 1.084781-8.228602 2.062771-12.612693 1.045437-4.665122 5.682456-7.610332 10.341958-6.564895 4.670743 1.045437 7.610332 5.671215 6.564895 10.341958-0.843094 3.771442-1.500708 6.890892-1.680568 9.869825C39.985158 385.631388 36.168751 389.178005 31.621661 389.178005z" p-id="1818"></path><path d="M35.365001 358.034097c4.743811-27.754668 8.908698-63.333253 37.838078-76.440561" p-id="1819"></path><path d="M35.376242 367.414928c-0.522719 0-1.056678-0.044965-1.590638-0.134895-5.109152-0.871198-8.543357-5.721801-7.666539-10.830953l0.876818-5.210324c4.743811-28.440385 10.645472-63.833489 42.340202-78.194197 4.721329-2.130219 10.280131-0.044965 12.41597 4.676364 2.135839 4.721329 0.044965 10.280131-4.676364 12.41597-22.578069 10.229546-27.355604 38.894756-31.571076 64.187589l-0.888059 5.289012C43.829669 364.188686 39.861504 367.414928 35.376242 367.414928z" p-id="1820"></path><path d="M73.208699 288.012295c-2.074012 0-4.10868-1.006093-5.345219-2.866521-1.955979-2.94521-1.152229-6.924616 1.798601-8.886215 10.763505-7.14382 21.78556-14.540568 33.049301-22.100315C273.758379 139.374749 508.031836-17.834257 703.71405 146.79398c2.709143 2.276355 3.057622 6.323208 0.781267 9.026731-2.276355 2.714764-6.323208 3.063243-9.026731 0.781267-83.359556-70.128594-180.776306-86.141767-297.820294-48.944441-101.868288 32.374826-200.645231 98.658909-287.793091 157.141559-11.280603 7.570988-22.32514 14.984598-33.105508 22.134039C75.653673 287.669437 74.428375 288.012295 73.208699 288.012295z" p-id="1821"></path><path d="M1852.469542 409.541545c-1.354572 0-2.720385-0.421547-3.895096-1.287124-111.204154-82.606391-228.928238-161.70551-342.779709-238.196656-75.417606-50.669975-153.370116-103.043-228.832687-156.034295-62.136059 13.298409-132.15224 12.292317-199.875204 11.314327-143.444085-2.062771-291.682566-4.19861-371.888949 129.735369-1.860428 3.096967-5.879178 4.10868-8.976145 2.248252-3.096967-1.854808-4.10868-5.873558-2.248252-8.976145 84.084617-140.403324 236.190091-138.216899 383.298826-136.092301 68.020858 0.98361 138.346174 1.989703 199.678482-11.617841L1279.766744 0l2.360664 1.658086c76.08084 53.474669 154.814618 106.370413 230.957285 157.529382 113.975124 76.581076 231.839724 155.764504 343.291186 238.556376 2.900245 2.152701 3.501652 6.255761 1.348951 9.156005C1856.443327 408.625383 1854.464866 409.541545 1852.469542 409.541545z" p-id="1822"></path><path d="M1176.465195 598.861208c-2.293217 0-4.608916-0.702579-6.60986-2.163942-5.00236-3.653409-6.087142-10.673575-2.433733-15.670315 113.767161-155.511576 301.142086-160.09801 482.345559-164.538307 73.011977-1.78736 141.982721-3.47917 206.102862-14.55181 6.143348-1.056678 11.904493 3.040761 12.961172 9.139144s-3.040761 11.904493-9.139144 12.955551c-65.744503 11.359292-138.7621 13.141032-209.374068 14.872186-175.779566 4.305402-357.545102 8.756941-464.792333 155.359819C1183.327983 597.27057 1179.921882 598.861208 1176.465195 598.861208z" p-id="1823"></path><path d="M1132.320771 570.48827c-2.045909 0-4.097439-0.730682-5.733042-2.214528-77.50848-70.190421-154.055833-144.214111-228.085144-215.804068-66.570735-64.373069-135.400964-130.943805-204.692084-194.4794-3.473549-3.186897-3.709615-8.588322-0.522719-12.061871 3.192518-3.467928 8.582701-3.703995 12.061871-0.522719 69.454118 63.692973 138.368656 130.336777 205.01808 194.788535 73.928139 71.494407 150.374321 145.422546 227.674838 215.421866 3.496032 3.164414 3.765822 8.560219 0.595787 12.061871C1136.963411 569.538384 1134.647712 570.48827 1132.320771 570.48827z" p-id="1824"></path><path d="M422.204824 829.025984c-2.326941 0-4.608916-1.096023-6.042177-3.153173-58.550097-84.152064-113.502991-172.997354-166.646043-258.919917C191.596017 473.301966 131.70259 376.45852 67.211487 285.865215c-2.355044-3.30493-1.579397-7.896984 1.725533-10.252028 3.299309-2.349423 7.896984-1.579397 10.252028 1.725533C143.955562 368.319849 203.978264 465.365637 262.022504 559.218908c53.04188 85.759564 107.887983 174.430615 166.213255 258.256683 2.315699 3.333033 1.495087 7.913846-1.837946 10.229546C425.12193 828.598817 423.654946 829.025984 422.204824 829.025984z" p-id="1825"></path><path d="M422.210444 830.048939c-3.181276 0-6.222037-1.815463-7.627194-4.901189-1.916635-4.209851-0.061827-9.178488 4.148025-11.100743 54.306522-24.73639 109.231313-54.239074 162.340641-82.77501 167.820755-90.154897 341.368931-183.395519 541.901749-156.753735 4.580813 0.607028 7.812675 4.816879 7.200026 9.408934-0.607028 4.580813-4.850603 7.795813-9.408934 7.200026-195.153876-25.916722-366.290802 66.003052-531.767754 154.898927-53.351015 28.66521-108.517493 58.297169-163.324251 83.264005C424.554247 829.807252 423.373915 830.048939 422.210444 830.048939z" p-id="1826"></path><path d="M411.919072 930.500829c-0.53396 0-1.079161-0.039344-1.624362-0.123654-5.71618-0.888059-9.628138-6.244519-8.740079-11.9607 3.720857-23.910158 5.867937-48.562239 7.94757-72.399328 0.736302-8.447806 1.472605-16.895612 2.281976-25.337798 0.550822-5.755525 5.659974-9.976617 11.421119-9.437037 5.761145 0.550822 9.982238 5.665595 9.437037 11.421119-0.798129 8.385979-1.528811 16.777579-2.259493 25.174799-2.107736 24.185569-4.28854 49.186128-8.116189 73.793244C421.451659 926.808075 416.988879 930.500829 411.919072 930.500829z" p-id="1827"></path></svg>