<?xml version="1.0" standalone="no"?><!DOCTYPE svg PUBLIC "-//W3C//DTD SVG 1.1//EN" "http://www.w3.org/Graphics/SVG/1.1/DTD/svg11.dtd"><svg t="1576324657414" class="icon" viewBox="0 0 1024 1024" version="1.1" xmlns="http://www.w3.org/2000/svg" p-id="1953" xmlns:xlink="http://www.w3.org/1999/xlink" width="200" height="200"><defs><style type="text/css"></style></defs><path d="M868.903385 19.692308H647.483077c-60.573538 0-113.742769 29.538462-147.692308 75.303384A183.217231 183.217231 0 0 0 352.019692 19.692308H130.441846C69.159385 19.692308 19.692308 69.159385 19.692308 130.441846v590.769231c0 61.282462 49.467077 110.749538 110.749538 110.749538H352.098462c61.282462 0 110.749538 49.545846 110.749538 110.828308 0 20.637538 16.226462 36.942769 36.942769 36.942769a36.548923 36.548923 0 0 0 36.864-37.021538c0-61.203692 49.545846-110.670769 110.828308-110.670769h221.499077c61.282462 0 110.749538-49.545846 110.749538-110.828308v-590.769231c0-61.282462-49.467077-110.749538-110.749538-110.749538z m-406.134154 775.404307a186.525538 186.525538 0 0 0-110.749539-36.942769H130.441846a36.548923 36.548923 0 0 1-36.864-36.942769v-590.769231c0-20.637538 16.226462-36.864 36.864-36.864H352.098462c61.282462 0 110.749538 49.467077 110.749538 110.749539v590.76923z m443.076923-73.885538a36.548923 36.548923 0 0 1-36.942769 36.942769H647.483077c-41.353846 0-79.793231 14.020923-110.749539 36.942769v-590.76923c0-61.282462 49.467077-110.749538 110.749539-110.749539h221.499077c20.716308 0 36.942769 16.226462 36.942769 36.864v590.769231z" p-id="1954"></path></svg>