<?xml version="1.0" standalone="no"?><!DOCTYPE svg PUBLIC "-//W3C//DTD SVG 1.1//EN" "http://www.w3.org/Graphics/SVG/1.1/DTD/svg11.dtd"><svg t="1576325391860" class="icon" viewBox="0 0 1024 1024" version="1.1" xmlns="http://www.w3.org/2000/svg" p-id="2507" xmlns:xlink="http://www.w3.org/1999/xlink" width="200" height="200"><defs><style type="text/css"></style></defs><path d="M515.2 1024c-281.6 0-512-230.4-512-512s230.4-512 512-512c176 0 339.2 89.6 432 240 9.6 16 6.4 35.2-9.6 44.8-16 9.6-35.2 6.4-44.8-9.6-80-134.4-224-211.2-377.6-211.2-246.4 0-448 201.6-448 448s201.6 448 448 448c128 0 249.6-54.4 332.8-150.4 12.8-12.8 32-12.8 44.8-3.2 12.8 12.8 12.8 32 3.2 44.8-96 112-236.8 172.8-380.8 172.8z" p-id="2508"></path><path d="M924.8 326.4c-6.4 0-9.6 0-16-3.2l-179.2-57.6c-16-6.4-25.6-22.4-19.2-41.6 6.4-16 22.4-25.6 41.6-19.2L915.2 256 960 92.8c6.4-16 22.4-25.6 38.4-22.4 16 6.4 25.6 22.4 22.4 38.4l-54.4 182.4c-3.2 12.8-12.8 22.4-22.4 28.8-3.2 6.4-12.8 6.4-19.2 6.4zM736 512H288c-19.2 0-32-12.8-32-32s12.8-32 32-32h448c19.2 0 32 12.8 32 32s-12.8 32-32 32z" p-id="2509"></path><path d="M512 832c-19.2 0-32-12.8-32-32V480c0-19.2 12.8-32 32-32s32 12.8 32 32v320c0 19.2-12.8 32-32 32z" p-id="2510"></path><path d="M704 672H320c-19.2 0-32-12.8-32-32s12.8-32 32-32h384c19.2 0 32 12.8 32 32s-12.8 32-32 32zM480 480c-9.6 0-22.4-6.4-28.8-16l-96-160c-6.4-16-3.2-35.2 12.8-44.8s35.2-3.2 44.8 9.6l96 160c9.6 16 3.2 35.2-9.6 44.8-6.4 6.4-12.8 6.4-19.2 6.4z" p-id="2511"></path><path d="M544 480c-6.4 0-12.8 0-16-3.2-16-9.6-19.2-28.8-9.6-44.8l96-160c6.4-16 25.6-19.2 41.6-12.8 16 9.6 19.2 28.8 12.8 44.8l-96 160c-6.4 9.6-19.2 16-28.8 16z" p-id="2512"></path></svg>